<svg width="64" height="64" viewBox="0 0 64 64" fill="none" xmlns="http://www.w3.org/2000/svg">
                                                                    <path fill-rule="evenodd" clip-rule="evenodd" d="M21.082 19H42.918C44.0679 19 45 19.9321 45 21.082V42.918C45 44.0679 44.0679 45 42.918 45H21.082C19.9321 45 19 44.0679 19 42.918V21.082C19 19.9321 19.9321 19 21.082 19ZM36.2248 24.5872H27.775C27.7153 24.5892 27.6585 24.6138 27.6162 24.6561C27.574 24.6983 27.5493 24.7551 27.5473 24.8149V24.8636V24.9206V24.9694V25.0344V25.075V25.1239V25.1727V25.2296V25.2783V25.3272V25.3841V25.4329V25.4895V25.4898V25.5386V33.2646V33.3215V33.3703V33.4191V33.4923V33.5248V33.5737V33.6306V33.6794V33.7525V33.7526V33.8339V33.8827V33.9396V33.9884C27.5473 34.0488 27.5713 34.1067 27.614 34.1494C27.6567 34.1921 27.7146 34.2161 27.775 34.2161H31.2106C30.7313 35.6596 29.8117 36.9246 28.572 37.8271C28.5446 37.8452 28.5216 37.8692 28.5048 37.8973C28.4879 37.9254 28.4775 37.957 28.4744 37.9897C28.4744 38.0034 28.4754 38.017 28.4775 38.0304C28.4761 38.0384 28.475 38.0465 28.4744 38.0547C28.4744 38.066 28.4751 38.0772 28.4765 38.0883C28.4757 38.0934 28.475 38.0984 28.4744 38.1035C28.4744 38.1131 28.4749 38.1226 28.4759 38.1321C28.4753 38.1361 28.4748 38.1401 28.4744 38.1442C28.4738 38.1611 28.4751 38.178 28.4781 38.1946C28.4765 38.2021 28.4753 38.2097 28.4744 38.2174C28.4742 38.2279 28.4746 38.2383 28.4756 38.2487L28.4744 38.258C28.4744 38.2676 28.4749 38.2771 28.4759 38.2866C28.4753 38.2906 28.4748 38.2947 28.4744 38.2987C28.4744 38.3124 28.4754 38.326 28.4775 38.3394C28.4761 38.3475 28.475 38.3556 28.4744 38.3638C28.4744 38.3751 28.4751 38.3863 28.4765 38.3974C28.4761 38.4 28.4757 38.4026 28.4753 38.4052C28.475 38.4077 28.4747 38.4101 28.4744 38.4126C28.4744 38.4268 28.4755 38.4409 28.4778 38.4549C28.4763 38.4624 28.4751 38.4699 28.4744 38.4776C28.4741 38.4858 28.4743 38.4941 28.4749 38.5022C28.4756 38.514 28.4771 38.5257 28.4795 38.5372C28.4772 38.547 28.4755 38.557 28.4744 38.5671C28.4744 38.5767 28.4749 38.5862 28.4759 38.5957C28.4753 38.5997 28.4748 38.6037 28.4744 38.6078C28.4744 38.6207 28.4753 38.6337 28.4772 38.6464C28.476 38.6525 28.4751 38.6585 28.4744 38.6646C28.4741 38.6783 28.4749 38.6919 28.4767 38.7054C28.4757 38.7107 28.475 38.7161 28.4744 38.7216C28.4743 38.7547 28.4806 38.7876 28.4932 38.8183C28.5057 38.849 28.5242 38.8769 28.5476 38.9005L30.9874 41.3403C31.0283 41.3815 31.0838 41.405 31.1419 41.4053C31.1883 41.4044 31.2334 41.3903 31.272 41.3647C32.8608 40.3029 34.1632 38.8658 35.064 37.1806C35.9145 35.5894 36.3822 33.8234 36.4318 32.0228C36.4459 31.7868 36.4529 31.55 36.4525 31.3128M36.2248 24.5872C36.281 24.5911 36.3336 24.6158 36.3727 24.6563L36.2248 24.5872ZM36.3727 24.6563C36.4117 24.6969 36.4344 24.7505 36.4363 24.8067L36.3727 24.6563ZM36.4363 24.8067V24.8222V24.8067ZM36.4363 24.8222C36.4398 24.8413 36.4408 24.8607 36.4394 24.8801L36.4363 24.8222ZM36.4394 24.8801C36.4434 24.907 36.4423 24.9346 36.4363 24.9612L36.4394 24.8801ZM36.4363 24.9612V24.9679V24.9612ZM36.4363 24.9679L36.4363 24.9694L36.4363 24.9679ZM36.4363 24.9694V24.9851V24.9694ZM36.4363 24.9851C36.4409 25.0061 36.4425 25.0275 36.4411 25.0489L36.4363 24.9851ZM36.4411 25.0489L36.4427 25.0536L36.4411 25.0489ZM36.4427 25.0536C36.4526 25.0841 36.456 25.1164 36.4525 25.1483L36.4427 25.0536Z" fill="white"></path>
                                                                </svg>