<svg width="40" height="40" viewBox="0 0 40 40" fill="none" xmlns="http://www.w3.org/2000/svg">
                                                                    <path fill-rule="evenodd" clip-rule="evenodd" d="M12.3613 11H26.6387C27.3905 11 28 11.6095 28 12.3613V26.6387C28 27.3905 27.3905 28 26.6387 28H12.3613C11.6095 28 11 27.3905 11 26.6387V12.3613C11 11.6095 11.6095 11 12.3613 11ZM24.5999 14.25H22.9131L20.1337 17.7649L17.7306 14.25H14.25L18.4087 20.2662L14.4672 25.25H16.155L19.197 21.4045L21.8556 25.25H25.25L20.9149 18.9095L24.5999 14.25ZM23.2558 24.1331H22.3212L16.2197 15.3083H17.2227L23.2558 24.1331Z" fill="black"></path>
                                                                </svg>