<svg width="64" height="64" viewBox="0 0 64 64" fill="none" xmlns="http://www.w3.org/2000/svg">
                                                                    <g clip-path="url(#clip0_554_20149)">
                                                                        <path d="M30.1164 41.3843C30.1164 41.8516 30.0243 42.3143 29.8455 42.746C29.6667 43.1777 29.4046 43.5699 29.0742 43.9004C28.7438 44.2308 28.3516 44.4929 27.9199 44.6717C27.4882 44.8505 27.0255 44.9425 26.5582 44.9425C26.0909 44.9425 25.6282 44.8505 25.1965 44.6717C24.7648 44.4929 24.3726 44.2308 24.0422 43.9004C23.7118 43.5699 23.4497 43.1777 23.2708 42.746C23.092 42.3143 23 41.8516 23 41.3843V22.61C23 22.1427 23.092 21.68 23.2708 21.2483C23.4497 20.8166 23.7118 20.4243 24.0422 20.0939C24.3726 19.7635 24.7648 19.5014 25.1965 19.3226C25.6282 19.1438 26.0909 19.0518 26.5582 19.0518C27.0255 19.0518 27.4882 19.1438 27.9199 19.3226C28.3516 19.5014 28.7438 19.7635 29.0742 20.0939C29.4046 20.4243 29.6667 20.8166 29.8455 21.2483C30.0243 21.68 30.1164 22.1427 30.1164 22.61V41.3843Z" fill="white"></path>
                                                                        <path d="M28.5412 44.4375C28.1455 44.6861 27.7048 44.8543 27.2441 44.9326C26.7834 45.0108 26.3119 44.9976 25.8563 44.8936C24.9363 44.6836 24.1373 44.1168 23.6352 43.3177C23.1332 42.5186 22.9691 41.5529 23.1791 40.6328C23.3891 39.7128 23.9559 38.9139 24.755 38.4118L39.5608 29.1113C39.9565 28.8627 40.3972 28.6945 40.8579 28.6162C41.3186 28.5379 41.7901 28.5512 42.2457 28.6551C42.7013 28.7591 43.1319 28.9518 43.513 29.2222C43.8941 29.4926 44.2182 29.8354 44.4668 30.2311C44.7154 30.6267 44.8836 31.0675 44.9619 31.5281C45.0401 31.9888 45.0269 32.4604 44.9229 32.9159C44.819 33.3715 44.6263 33.8021 44.3559 34.1832C44.0855 34.5643 43.7427 34.8884 43.347 35.137L28.5412 44.4375Z" fill="white"></path>
                                                                        <path d="M28.5259 19.5463C28.1302 19.2977 27.6894 19.1295 27.2287 19.0512C26.7679 18.973 26.2963 18.9862 25.8407 19.0903C25.3851 19.1943 24.9545 19.387 24.5734 19.6575C24.1922 19.9279 23.8681 20.2708 23.6195 20.6665C23.3709 21.0622 23.2027 21.503 23.1245 21.9637C23.0462 22.4245 23.0595 22.8961 23.1635 23.3517C23.2675 23.8073 23.4603 24.2379 23.7307 24.619C24.0012 25.0002 24.344 25.3243 24.7397 25.5729L39.5375 34.8707C39.9332 35.1193 40.3739 35.2875 40.8346 35.3658C41.2953 35.444 41.7668 35.4308 42.2224 35.3268C42.678 35.2229 43.1086 35.0302 43.4897 34.7598C43.8708 34.4894 44.1949 34.1466 44.4435 33.7509C44.6921 33.3553 44.8603 32.9145 44.9386 32.4538C45.0168 31.9932 45.0036 31.5216 44.8996 31.066C44.7957 30.6105 44.603 30.1799 44.3326 29.7988C44.0622 29.4177 43.7194 29.0936 43.3237 28.845L28.5259 19.5463Z" fill="white"></path>
                                                                    </g>
                                                                </svg>